<mxfile host="app.diagrams.net" agent="Mozilla/5.0 (Windows NT 10.0; Win64; x64) AppleWebKit/537.36 (KHTML, like Gecko) Chrome/131.0.0.0 Safari/537.36" version="25.0.3">
  <diagram id="GnySpQE1Cpet4CN0fvD1" name="Page-1">
    <mxGraphModel dx="1499" dy="170" grid="1" gridSize="10" guides="1" tooltips="1" connect="1" arrows="1" fold="1" page="1" pageScale="1" pageWidth="1169" pageHeight="827" math="0" shadow="0">
      <root>
        <mxCell id="0" />
        <mxCell id="1" parent="0" />
        <mxCell id="53" value="" style="rounded=1;whiteSpace=wrap;html=1;labelBackgroundColor=none;dashed=1;fillColor=none;arcSize=5;strokeColor=#4d4d4d;gradientColor=#7ea6e0;" parent="1" vertex="1">
          <mxGeometry x="-810" y="937.89" width="380" height="60" as="geometry" />
        </mxCell>
        <mxCell id="51" value="" style="rounded=1;whiteSpace=wrap;html=1;labelBackgroundColor=none;dashed=1;fillColor=none;arcSize=5;strokeColor=#6c8ebf;gradientColor=#7ea6e0;" parent="1" vertex="1">
          <mxGeometry x="-810" y="650" width="380" height="270" as="geometry" />
        </mxCell>
        <mxCell id="52" value="&lt;b style=&quot;font-size: 14px;&quot;&gt;IV. + V. Modeling &amp;amp; Evaluation&lt;/b&gt;" style="text;whiteSpace=wrap;html=1;rotation=-90;fillColor=none;strokeColor=none;fontSize=14;gradientColor=#7ea6e0;fontColor=#6c8ebf;" parent="1" vertex="1">
          <mxGeometry x="-960" y="777.5" width="260" height="25" as="geometry" />
        </mxCell>
        <mxCell id="33" value="&lt;b&gt;&lt;br&gt;&lt;/b&gt;" style="whiteSpace=wrap;html=1;labelBackgroundColor=none;strokeColor=#82b366;fillColor=none;rounded=1;arcSize=5;" parent="1" vertex="1">
          <mxGeometry x="-720" y="550" width="200" height="80" as="geometry" />
        </mxCell>
        <mxCell id="26" value="" style="rounded=1;whiteSpace=wrap;html=1;labelBackgroundColor=none;dashed=1;fillColor=none;arcSize=5;strokeColor=#003300;movable=1;resizable=1;rotatable=1;deletable=1;editable=1;connectable=1;" parent="1" vertex="1">
          <mxGeometry x="-810" y="410" width="380" height="230" as="geometry" />
        </mxCell>
        <mxCell id="12" value="" style="rounded=1;whiteSpace=wrap;html=1;labelBackgroundColor=none;dashed=1;fillColor=none;arcSize=5;strokeColor=#994C00;" parent="1" vertex="1">
          <mxGeometry x="-810" y="120" width="380" height="270" as="geometry" />
        </mxCell>
        <mxCell id="5" style="edgeStyle=orthogonalEdgeStyle;html=1;exitX=0.5;exitY=1;exitDx=0;exitDy=0;rounded=0;entryX=0.5;entryY=0;entryDx=0;entryDy=0;fillColor=#eeeeee;strokeColor=#36393d;" parent="1" source="4" target="6" edge="1">
          <mxGeometry relative="1" as="geometry">
            <mxPoint x="-670" y="220" as="targetPoint" />
          </mxGeometry>
        </mxCell>
        <mxCell id="8" style="edgeStyle=orthogonalEdgeStyle;rounded=0;html=1;exitX=0.5;exitY=1;exitDx=0;exitDy=0;entryX=0.5;entryY=0;entryDx=0;entryDy=0;fillColor=#eeeeee;strokeColor=#36393d;" parent="1" source="4" target="7" edge="1">
          <mxGeometry relative="1" as="geometry" />
        </mxCell>
        <mxCell id="4" value="&lt;b&gt;Initial Dataset&lt;/b&gt;" style="ellipse;whiteSpace=wrap;html=1;fillColor=#4D4D4D;strokeColor=#333333;fontColor=#FFFFFF;rounded=1;fontFamily=Calibri;fontSource=https%3A%2F%2Fwww.downloadfonts.io%2Fcalibri-font-family-free%2F;" parent="1" vertex="1">
          <mxGeometry x="-670" y="130" width="100" height="40" as="geometry" />
        </mxCell>
        <mxCell id="16" value="" style="edgeStyle=orthogonalEdgeStyle;rounded=0;html=1;fontColor=#d6b656;fillColor=#fff2cc;strokeColor=#d6b656;" parent="1" source="6" target="15" edge="1">
          <mxGeometry relative="1" as="geometry" />
        </mxCell>
        <mxCell id="6" value="Data&lt;br&gt;&lt;b&gt;Visualization&lt;/b&gt;" style="whiteSpace=wrap;html=1;fillColor=#fff2cc;strokeColor=#d6b656;" parent="1" vertex="1">
          <mxGeometry x="-760" y="240" width="120" height="40" as="geometry" />
        </mxCell>
        <mxCell id="17" style="edgeStyle=orthogonalEdgeStyle;rounded=0;html=1;exitX=0.5;exitY=1;exitDx=0;exitDy=0;entryX=0.5;entryY=0;entryDx=0;entryDy=0;fontColor=#d6b656;fillColor=#fff2cc;strokeColor=#d6b656;" parent="1" source="7" target="15" edge="1">
          <mxGeometry relative="1" as="geometry" />
        </mxCell>
        <mxCell id="7" value="Data&lt;br&gt;&lt;b&gt;Understanding&lt;/b&gt;" style="whiteSpace=wrap;html=1;fillColor=#fff2cc;strokeColor=#d6b656;" parent="1" vertex="1">
          <mxGeometry x="-600" y="240" width="120" height="40" as="geometry" />
        </mxCell>
        <mxCell id="9" value="" style="strokeWidth=2;html=1;shape=mxgraph.flowchart.annotation_2;align=left;labelPosition=right;pointerEvents=1;fillColor=#fff2cc;strokeColor=#d6b656;" parent="1" vertex="1">
          <mxGeometry x="-790" y="240" width="10" height="40" as="geometry" />
        </mxCell>
        <mxCell id="11" value="&lt;span style=&quot;font-family: Helvetica; font-size: 12px; font-style: normal; font-variant-ligatures: normal; font-variant-caps: normal; letter-spacing: normal; orphans: 2; text-align: left; text-indent: 0px; text-transform: none; widows: 2; word-spacing: 0px; -webkit-text-stroke-width: 0px; text-decoration-thickness: initial; text-decoration-style: initial; text-decoration-color: initial; float: none; display: inline !important;&quot;&gt;&lt;b&gt;EDA&lt;/b&gt;&lt;/span&gt;" style="text;whiteSpace=wrap;html=1;rotation=-90;fillColor=none;strokeColor=none;fontColor=#d6b656;" parent="1" vertex="1">
          <mxGeometry x="-820" y="255" width="30" height="10" as="geometry" />
        </mxCell>
        <mxCell id="14" value="&lt;b style=&quot;font-size: 14px;&quot;&gt;I.+ II. Business &amp;amp; &lt;br style=&quot;font-size: 14px;&quot;&gt;Data Understanding&lt;/b&gt;" style="text;whiteSpace=wrap;html=1;rotation=-90;fillColor=none;strokeColor=none;fontColor=#994C00;fontSize=14;" parent="1" vertex="1">
          <mxGeometry x="-920" y="287.5" width="165" height="40" as="geometry" />
        </mxCell>
        <mxCell id="20" value="" style="edgeStyle=orthogonalEdgeStyle;rounded=0;html=1;fontColor=#994C00;fillColor=#fad7ac;strokeColor=#b46504;" parent="1" source="15" target="19" edge="1">
          <mxGeometry relative="1" as="geometry">
            <Array as="points">
              <mxPoint x="-620" y="400" />
              <mxPoint x="-700" y="400" />
            </Array>
          </mxGeometry>
        </mxCell>
        <mxCell id="23" style="edgeStyle=orthogonalEdgeStyle;rounded=0;html=1;exitX=0.5;exitY=1;exitDx=0;exitDy=0;fontColor=#994C00;fillColor=#fad7ac;strokeColor=#b46504;" parent="1" source="15" target="22" edge="1">
          <mxGeometry relative="1" as="geometry">
            <Array as="points">
              <mxPoint x="-620" y="400" />
              <mxPoint x="-540" y="400" />
            </Array>
          </mxGeometry>
        </mxCell>
        <mxCell id="15" value="Data &lt;b&gt;Requirements &lt;/b&gt;&amp;amp;&amp;nbsp;&lt;b&gt;Assessment&lt;/b&gt;" style="whiteSpace=wrap;html=1;fillColor=#ffe6cc;strokeColor=#d79b00;" parent="1" vertex="1">
          <mxGeometry x="-680" y="320" width="120" height="40" as="geometry" />
        </mxCell>
        <mxCell id="24" style="edgeStyle=orthogonalEdgeStyle;rounded=0;html=1;exitX=0.5;exitY=1;exitDx=0;exitDy=0;fontColor=#994C00;fillColor=#d0cee2;strokeColor=#56517e;entryX=0;entryY=0.5;entryDx=0;entryDy=0;" parent="1" source="19" target="28" edge="1">
          <mxGeometry relative="1" as="geometry">
            <mxPoint x="-700" y="550" as="targetPoint" />
          </mxGeometry>
        </mxCell>
        <mxCell id="19" value="Initial &lt;br&gt;&lt;b&gt;Preprocessing&lt;/b&gt;" style="whiteSpace=wrap;html=1;fillColor=#d0cee2;strokeColor=#56517e;" parent="1" vertex="1">
          <mxGeometry x="-760" y="430" width="120" height="40" as="geometry" />
        </mxCell>
        <mxCell id="29" style="edgeStyle=orthogonalEdgeStyle;rounded=0;html=1;exitX=0.5;exitY=1;exitDx=0;exitDy=0;entryX=1;entryY=0.5;entryDx=0;entryDy=0;fontColor=default;fillColor=#f8cecc;strokeColor=#b85450;" parent="1" source="22" target="28" edge="1">
          <mxGeometry relative="1" as="geometry" />
        </mxCell>
        <mxCell id="22" value="Feature&lt;br&gt;&lt;b&gt;Creation&lt;/b&gt;" style="whiteSpace=wrap;html=1;fillColor=#f8cecc;strokeColor=#b85450;" parent="1" vertex="1">
          <mxGeometry x="-600" y="430" width="120" height="40" as="geometry" />
        </mxCell>
        <mxCell id="27" value="&lt;b style=&quot;font-size: 14px;&quot;&gt;III.&amp;nbsp;Data Preparation&lt;/b&gt;" style="text;whiteSpace=wrap;html=1;rotation=-90;fillColor=none;strokeColor=none;fontColor=#1A3300;fontFamily=Calibri;fontSource=https%3A%2F%2Fwww.downloadfonts.io%2Fcalibri-font-family-free%2F;fontSize=14;" parent="1" vertex="1">
          <mxGeometry x="-890" y="550" width="130" height="30" as="geometry" />
        </mxCell>
        <mxCell id="30" style="edgeStyle=orthogonalEdgeStyle;rounded=0;html=1;exitX=0.5;exitY=1;exitDx=0;exitDy=0;fontColor=default;fillColor=#f5f5f5;strokeColor=#666666;" parent="1" source="28" edge="1">
          <mxGeometry relative="1" as="geometry">
            <mxPoint x="-620" y="550" as="targetPoint" />
          </mxGeometry>
        </mxCell>
        <mxCell id="28" value="&lt;p style=&quot;line-height: 90%;&quot;&gt;&lt;b style=&quot;border-color: var(--border-color); font-family: Calibri; line-height: 9.6px;&quot;&gt;Splitting Train/Test&lt;/b&gt;&lt;br style=&quot;border-color: var(--border-color); font-family: Calibri;&quot;&gt;&lt;font style=&quot;border-color: var(--border-color); font-family: Calibri; font-size: 10px; line-height: 8px;&quot;&gt;75% / 25%&lt;b style=&quot;border-color: var(--border-color);&quot;&gt;&amp;nbsp;&lt;/b&gt;&lt;/font&gt;&lt;/p&gt;" style="rounded=1;whiteSpace=wrap;html=1;labelBackgroundColor=none;strokeColor=#666666;fillColor=#f5f5f5;gradientColor=none;fontColor=default;" parent="1" vertex="1">
          <mxGeometry x="-680" y="490" width="120" height="35" as="geometry" />
        </mxCell>
        <mxCell id="31" value="Feature &lt;b&gt;Engineering&lt;br&gt;&lt;/b&gt;" style="whiteSpace=wrap;html=1;labelBackgroundColor=none;strokeColor=#82b366;fillColor=#d5e8d4;rounded=1;arcSize=13;" parent="1" vertex="1">
          <mxGeometry x="-720" y="550" width="200" height="30" as="geometry" />
        </mxCell>
        <mxCell id="35" value="" style="edgeStyle=orthogonalEdgeStyle;rounded=0;html=1;fontSize=8;fontColor=default;fillColor=#d5e8d4;strokeColor=#82b366;" parent="1" target="34" edge="1">
          <mxGeometry relative="1" as="geometry">
            <mxPoint x="-620" y="630" as="sourcePoint" />
          </mxGeometry>
        </mxCell>
        <mxCell id="32" value="&lt;ul style=&quot;font-size: 8px; line-height: 140%;&quot;&gt;&lt;li&gt;Dealing with &lt;b&gt;Missing Values&lt;/b&gt;&lt;/li&gt;&lt;li&gt;Dealing with &lt;b&gt;Outliers&lt;/b&gt;&lt;/li&gt;&lt;li&gt;&lt;b&gt;Encoding &lt;/b&gt;Categorical Features&lt;/li&gt;&lt;/ul&gt;" style="text;html=1;align=left;verticalAlign=middle;resizable=0;points=[];autosize=1;strokeColor=none;fillColor=none;fontColor=default;" parent="1" vertex="1">
          <mxGeometry x="-710" y="570" width="180" height="60" as="geometry" />
        </mxCell>
        <mxCell id="37" value="" style="edgeStyle=orthogonalEdgeStyle;rounded=0;html=1;fontSize=10;fontColor=#1A3300;fillColor=#bac8d3;strokeColor=#23445d;" parent="1" source="34" target="36" edge="1">
          <mxGeometry relative="1" as="geometry">
            <Array as="points">
              <mxPoint x="-620" y="700" />
              <mxPoint x="-680" y="700" />
            </Array>
          </mxGeometry>
        </mxCell>
        <mxCell id="39" style="edgeStyle=orthogonalEdgeStyle;rounded=0;html=1;exitX=0.5;exitY=1;exitDx=0;exitDy=0;entryX=0.5;entryY=0;entryDx=0;entryDy=0;fontSize=10;fontColor=#1A3300;fillColor=#bac8d3;strokeColor=#23445d;" parent="1" source="34" target="38" edge="1">
          <mxGeometry relative="1" as="geometry">
            <Array as="points">
              <mxPoint x="-620" y="700" />
              <mxPoint x="-560" y="700" />
            </Array>
          </mxGeometry>
        </mxCell>
        <mxCell id="34" value="&lt;font style=&quot;font-size: 10px;&quot;&gt;Feature &lt;b&gt;Selection&lt;/b&gt;&lt;/font&gt;" style="whiteSpace=wrap;html=1;rounded=1;labelBackgroundColor=none;strokeColor=#23445d;fontSize=8;fillColor=#bac8d3;" parent="1" vertex="1">
          <mxGeometry x="-687.5" y="660" width="135" height="30" as="geometry" />
        </mxCell>
        <mxCell id="40" style="edgeStyle=orthogonalEdgeStyle;rounded=0;html=1;exitX=0.5;exitY=1;exitDx=0;exitDy=0;fontSize=10;fontColor=#1A3300;fillColor=#f5f5f5;strokeColor=#666666;entryX=0.5;entryY=0.5;entryDx=0;entryDy=-20;entryPerimeter=0;" parent="1" source="36" target="42" edge="1">
          <mxGeometry relative="1" as="geometry">
            <mxPoint x="-620" y="790" as="targetPoint" />
          </mxGeometry>
        </mxCell>
        <mxCell id="36" value="&lt;font style=&quot;font-size: 10px; line-height: 90%;&quot;&gt;Feature &lt;br&gt;&lt;b&gt;Scaling&lt;/b&gt;&lt;/font&gt;" style="whiteSpace=wrap;html=1;fontSize=8;fillColor=#f5f5f5;strokeColor=#666666;rounded=1;labelBackgroundColor=none;fontColor=#333333;" parent="1" vertex="1">
          <mxGeometry x="-720" y="720" width="80" height="40" as="geometry" />
        </mxCell>
        <mxCell id="41" style="edgeStyle=orthogonalEdgeStyle;rounded=0;html=1;exitX=0.5;exitY=1;exitDx=0;exitDy=0;fontSize=10;fontColor=#1A3300;fillColor=#f5f5f5;strokeColor=#666666;entryX=0.5;entryY=0.5;entryDx=0;entryDy=-20;entryPerimeter=0;" parent="1" source="38" target="42" edge="1">
          <mxGeometry relative="1" as="geometry">
            <mxPoint x="-620" y="790" as="targetPoint" />
          </mxGeometry>
        </mxCell>
        <mxCell id="38" value="&lt;font style=&quot;line-height: 90%;&quot;&gt;&lt;span style=&quot;font-size: 10px;&quot;&gt;&lt;b&gt;Imbalance&lt;/b&gt;&lt;/span&gt;&lt;br&gt;&lt;span style=&quot;font-size: 10px;&quot;&gt;Treatment&lt;/span&gt;&lt;/font&gt;" style="whiteSpace=wrap;html=1;fontSize=8;fillColor=#f5f5f5;strokeColor=#666666;rounded=1;labelBackgroundColor=none;fontColor=#333333;" parent="1" vertex="1">
          <mxGeometry x="-600" y="720" width="80" height="40" as="geometry" />
        </mxCell>
        <mxCell id="43" style="edgeStyle=orthogonalEdgeStyle;rounded=0;html=1;exitX=0.5;exitY=0.5;exitDx=0;exitDy=20;exitPerimeter=0;fontSize=8;fontColor=#1A3300;fillColor=#dae8fc;strokeColor=#6c8ebf;" parent="1" source="42" edge="1">
          <mxGeometry relative="1" as="geometry">
            <mxPoint x="-620" y="860" as="targetPoint" />
          </mxGeometry>
        </mxCell>
        <mxCell id="42" value="&lt;p style=&quot;line-height: 130%; font-size: 7px;&quot;&gt;&lt;font style=&quot;font-weight: bold; font-size: 14px;&quot;&gt;Classification Models&lt;/font&gt;&lt;br&gt;&lt;font style=&quot;font-size: 7px;&quot;&gt;Fit the &lt;b&gt;Train | &lt;/b&gt;Evaluate&amp;nbsp;&lt;b&gt;Validation | &lt;/b&gt;Predict &lt;b&gt;Test&lt;/b&gt;&lt;/font&gt;&lt;/p&gt;" style="html=1;dashed=0;whitespace=wrap;shape=mxgraph.dfd.start;fillColor=#dae8fc;strokeColor=#6c8ebf;strokeWidth=2;" parent="1" vertex="1">
          <mxGeometry x="-710" y="790" width="180" height="40" as="geometry" />
        </mxCell>
        <mxCell id="46" style="edgeStyle=orthogonalEdgeStyle;rounded=0;html=1;exitX=0.5;exitY=1;exitDx=0;exitDy=0;fontSize=7;fontColor=#1A3300;entryX=0.5;entryY=0.5;entryDx=0;entryDy=-17.39;entryPerimeter=0;fillColor=#b0e3e6;strokeColor=#0e8088;" parent="1" source="45" target="48" edge="1">
          <mxGeometry relative="1" as="geometry">
            <mxPoint x="-619.9090909090908" y="920" as="targetPoint" />
          </mxGeometry>
        </mxCell>
        <mxCell id="45" value="&lt;font style=&quot;&quot;&gt;&lt;span style=&quot;font-size: 11px;&quot;&gt;Best Models&lt;/span&gt;&lt;b style=&quot;font-size: 11px;&quot;&gt; Optimization&lt;/b&gt;&lt;/font&gt;" style="shape=trapezoid;perimeter=trapezoidPerimeter;whiteSpace=wrap;html=1;fixedSize=1;rounded=0;glass=0;labelBackgroundColor=none;sketch=0;strokeColor=#0e8088;strokeWidth=1;fontSize=6;fillColor=#b0e3e6;" parent="1" vertex="1">
          <mxGeometry x="-675" y="860" width="110" height="40" as="geometry" />
        </mxCell>
        <mxCell id="50" value="" style="group" parent="1" vertex="1" connectable="0">
          <mxGeometry x="-687.5" y="950" width="135" height="35.77999999999997" as="geometry" />
        </mxCell>
        <mxCell id="48" value="&lt;p style=&quot;line-height: 0%;&quot;&gt;&lt;b style=&quot;font-size: 9px;&quot;&gt;Final Model &lt;/b&gt;&lt;font size=&quot;1&quot;&gt;Select&amp;nbsp;&lt;/font&gt;&lt;span style=&quot;font-size: 9px;&quot;&gt;&lt;b&gt;&amp;amp;&lt;/b&gt;&lt;/span&gt;&lt;/p&gt;&lt;p style=&quot;line-height: 0%;&quot;&gt;&lt;b style=&quot;font-size: 9px;&quot;&gt;Deployment &lt;/b&gt;&lt;font size=&quot;1&quot;&gt;Solution&lt;/font&gt;&lt;/p&gt;&lt;p style=&quot;line-height: 0%;&quot;&gt;&lt;b style=&quot;background-color: initial; font-size: 9px;&quot;&gt;&amp;nbsp;&lt;/b&gt;&lt;/p&gt;" style="html=1;dashed=0;whitespace=wrap;shape=mxgraph.dfd.start;fillColor=#4D4D4D;strokeColor=#333333;fontColor=#ffffff;strokeWidth=2;fontSize=10;" parent="50" vertex="1">
          <mxGeometry width="135" height="34.78" as="geometry" />
        </mxCell>
        <mxCell id="49" value="&lt;span style=&quot;color: rgb(255, 255, 255);&quot;&gt;&lt;font style=&quot;font-size: 7px;&quot;&gt;WebApp&lt;/font&gt;&lt;/span&gt;" style="text;html=1;align=center;verticalAlign=middle;resizable=0;points=[];autosize=1;strokeColor=none;fillColor=none;fontSize=5;fontColor=#1A3300;" parent="50" vertex="1">
          <mxGeometry x="42.5" y="16.779999999999973" width="50" height="20" as="geometry" />
        </mxCell>
        <mxCell id="54" value="&lt;b style=&quot;font-size: 14px;&quot;&gt;VI. Deployment&lt;/b&gt;" style="text;whiteSpace=wrap;html=1;rotation=0;fillColor=none;strokeColor=none;fontSize=14;gradientColor=#b3b3b3;fontColor=#4d4d4d;" parent="1" vertex="1">
          <mxGeometry x="-812.5" y="998" width="260" height="25" as="geometry" />
        </mxCell>
      </root>
    </mxGraphModel>
  </diagram>
</mxfile>
